{"title":"The.Noite.2018.06.05.720p.WEB-DL.x264-Skylane77","magnet":"magnet:?xt=urn:btih:66b87af1019ca145522c8cc30b2b0ea136b7a745&dn=The.Noite.2018.06.05.720p.WEB-DL.x264-Skylane77&tr=udp%3A%2F%2Ftracker.leechers-paradise.org%3A6969&tr=udp%3A%2F%2Fzer0day.ch%3A1337&tr=udp%3A%2F%2Fopen.demonii.com%3A1337&tr=udp%3A%2F%2Ftracker.coppersurfer.tk%3A6969&tr=udp%3A%2F%2Fexodus.desync.com%3A6969","uploader":"beechbaron77","categoryP":"video","categoryS":"tv_shows","size":"550109861","seeders":"2","leechers":"2","description":"Tony Harris; Regis Danese\r\n\r\nEntrevista com o jornalista americano Tony Harris, que apresenta o programa &quot;Investigation Discovery&quot;; L&#xE9;o Lins entrevista elenco de &quot;Ocean&apos;s 8&quot;; entrevista com o cantor e compositor Jo&#xE3;o Geraldo Danese Silveira, mais conhecido como Regis Danese, que canta &quot;Sonhos&quot;.\r\n\r\n--\r\nGeneral\r\nComplete name: The.Noite.com.Danilo.Gentili.2018.06.05.720p.WEB-DL.x264-Skylane77.mp4\r\nFormat: MPEG-4\r\nFormat profile: Base Media\r\nCodec ID: isom (isom/iso2/avc1/mp41)\r\nFile size: 525 MiB\r\nDuration: 52 min 55 s\r\nOverall bit rate: 1 386 kb/s\r\nWriting application: Lavf58.12.100\r\n\r\nVideo\r\nID: 1\r\nFormat: AVC\r\nFormat/Info: Advanced Video Codec\r\nFormat profile: Main@L3.1\r\nFormat settings: CABAC / 3 Ref Frames\r\nFormat settings, CABAC: Yes\r\nFormat settings, ReFrames: 3 frames\r\nCodec ID: avc1\r\nCodec ID/Info: Advanced Video Coding\r\nDuration: 52 min 55 s\r\nBit rate: 1 252 kb/s\r\nWidth: 1 280 pixels\r\nHeight: 720 pixels\r\nDisplay aspect ratio: 16:9\r\nFrame rate mode: Constant\r\nFrame rate: 30.000 FPS\r\nColor space: YUV\r\nChroma subsampling: 4:2:0\r\nBit depth: 8 bits\r\nScan type: Progressive\r\nBits/(Pixel*Frame): 0.045\r\nStream size: 474 MiB (90%)\r\nColor range: Limited\r\nColor primaries: BT.709\r\nTransfer characteristics: BT.709\r\nMatrix coefficients: BT.709\r\n\r\nAudio\r\nID: 2\r\nFormat: AAC\r\nFormat/Info: Advanced Audio Codec\r\nFormat profile: LC\r\nCodec ID: mp4a-40-2\r\nDuration: 52 min 55 s\r\nBit rate mode: Constant\r\nBit rate: 126 kb/s\r\nChannel(s): 2 channels\r\nChannel positions: Front: L R\r\nSampling rate: 44.1 kHz\r\nFrame rate: 43.066 FPS (1024 SPF)\r\nCompression mode: Lossy\r\nStream size: 47.5 MiB (9%)\r\nDefault: Yes\r\nAlternate group: 1","last_updated":"2018-06-07T12:13:09.949Z","parsed":{"xt":"urn:btih:66b87af1019ca145522c8cc30b2b0ea136b7a745","dn":"The.Noite.2018.06.05.720p.WEB-DL.x264-Skylane77","tr":["udp://exodus.desync.com:6969","udp://open.demonii.com:1337","udp://tracker.coppersurfer.tk:6969","udp://tracker.leechers-paradise.org:6969","udp://zer0day.ch:1337"],"infoHash":"66b87af1019ca145522c8cc30b2b0ea136b7a745","infoHashBuffer":{"type":"Buffer","data":[102,184,122,241,1,156,161,69,82,44,140,195,11,43,14,161,54,183,167,69]},"name":"The.Noite.2018.06.05.720p.WEB-DL.x264-Skylane77","announce":["udp://exodus.desync.com:6969","udp://open.demonii.com:1337","udp://tracker.coppersurfer.tk:6969","udp://tracker.leechers-paradise.org:6969","udp://zer0day.ch:1337"],"urlList":[]}}